# xmcd
# 
# Track frame offsets:
#     150
#     13647
#     26577
#     46232
#     59742
#     70645
#     85920
#     105197
#     117812
#     130620
#     144927
#     157882
#     170730
#     182967
# 
# Disc length: 2630
# 
# Revision: 6
# Processed by: cddbd v1.5.2PL0 Copyright (c) Steve Scherf et al.
# Submitted via: fre:ac v1.0.17
# 
DISCID=af0a440e
DTITLE=Various Artist - Blues History CD2
DYEAR=1989
DGENRE=Blues
TTITLE0=John Lee Hooker - One Bourbon, One Scotch, One Beer
TTITLE1=Big Bill Broonzy and Washboard Sam - Little City Woman
TTITLE2=Little Milton - Stormy Monday
TTITLE3=Koko Taylor - Wang Dang Doodle
TTITLE4=B. B. King - Recession Blues
TTITLE5=Howlin' Wolf - Goin' Down Slow
TTITLE6=Sonny Boy Williamson - Nine Below Zero
TTITLE7=Buddy Guy - When My Left Eye Jumps 
TTITLE8=Muddy Waters - (I'm Your) Hoochie Coochie Man
TTITLE9=Lowell Fulson - Reconsider Baby
TTITLE10=Howlin' Wolf - Evil
TTITLE11=J.B. Lenoir - Eisenhower Blues
TTITLE12=Little Walter and His Night Cats - Juke
TTITLE13=Otis Rush - So Many Roads, So Many Trains
EXTD=
EXTT0=J.L. Hooker
EXTT1=B.B. Broonzy
EXTT2=T. Bone Walker
EXTT3=W. Dixon
EXTT4=B.B. King
EXTT5=St. Louis Jimmy
EXTT6=S.B. Williamson
EXTT7=W. Dixon - A. Perkins
EXTT8=W. Dixon
EXTT9=L. Fulson
EXTT10=W. Bixon
EXTT11=J.B. Lenoir
EXTT12=W. Jacobs
EXTT13=P. Marshall
PLAYORDER=
